<mxfile host="app.diagrams.net" modified="2024-01-05T10:25:17.486Z" agent="Mozilla/5.0 (Windows NT 10.0; Win64; x64) AppleWebKit/537.36 (KHTML, like Gecko) Chrome/120.0.0.0 Safari/537.36" version="22.1.16" etag="tlAIj4dZf6U4jOvibu2n" type="github">
  <diagram name="Page-1" id="XYTp5wBIFLbRx_2zd7YA">
    <mxGraphModel>
      <root>
        <mxCell id="0" />
        <mxCell id="1" parent="0" />
        <mxCell id="2" value="Data simulation" style="whiteSpace=wrap;strokeWidth=2;" vertex="1" parent="1">
          <mxGeometry width="127" height="34" as="geometry" />
        </mxCell>
        <mxCell id="3" value="Pre-processing" style="whiteSpace=wrap;strokeWidth=2;" vertex="1" parent="1">
          <mxGeometry x="177" width="119" height="34" as="geometry" />
        </mxCell>
        <mxCell id="4" value="Signal extraction" style="whiteSpace=wrap;strokeWidth=2;" vertex="1" parent="1">
          <mxGeometry x="346" width="136" height="34" as="geometry" />
        </mxCell>
        <mxCell id="5" value="Noise simulation" style="whiteSpace=wrap;strokeWidth=2;" vertex="1" parent="1">
          <mxGeometry x="532" width="133" height="34" as="geometry" />
        </mxCell>
        <mxCell id="6" value="Convolution" style="whiteSpace=wrap;strokeWidth=2;" vertex="1" parent="1">
          <mxGeometry x="715" width="100" height="34" as="geometry" />
        </mxCell>
        <mxCell id="7" value="Downsampling" style="whiteSpace=wrap;strokeWidth=2;" vertex="1" parent="1">
          <mxGeometry x="865" width="117" height="34" as="geometry" />
        </mxCell>
        <mxCell id="8" value="Simulation result" style="whiteSpace=wrap;strokeWidth=2;" vertex="1" parent="1">
          <mxGeometry x="1032" width="137" height="34" as="geometry" />
        </mxCell>
        <mxCell id="9" value="" style="curved=1;startArrow=none;endArrow=block;exitX=1.001722440944882;exitY=0.4950980579151827;entryX=0.001838235294117647;entryY=0.4950980579151827;" edge="1" parent="1" source="2" target="3">
          <mxGeometry relative="1" as="geometry">
            <Array as="points" />
          </mxGeometry>
        </mxCell>
        <mxCell id="10" value="" style="curved=1;startArrow=none;endArrow=block;exitX=0.9989495798319328;exitY=0.4950980579151827;entryX=-0.0009191176470588235;entryY=0.4950980579151827;" edge="1" parent="1" source="3" target="4">
          <mxGeometry relative="1" as="geometry">
            <Array as="points" />
          </mxGeometry>
        </mxCell>
        <mxCell id="11" value="" style="curved=1;startArrow=none;endArrow=block;exitX=0.9979319852941176;exitY=0.4950980579151827;entryX=-0.0021146616541353382;entryY=0.4950980579151827;" edge="1" parent="1" source="4" target="5">
          <mxGeometry relative="1" as="geometry">
            <Array as="points" />
          </mxGeometry>
        </mxCell>
        <mxCell id="12" value="" style="curved=1;startArrow=none;endArrow=block;exitX=0.9964755639097744;exitY=0.4950980579151827;entryX=-0.0046875;entryY=0.4950980579151827;" edge="1" parent="1" source="5" target="6">
          <mxGeometry relative="1" as="geometry">
            <Array as="points" />
          </mxGeometry>
        </mxCell>
        <mxCell id="13" value="" style="curved=1;startArrow=none;endArrow=block;exitX=0.9955208587646485;exitY=0.4950980579151827;entryX=-0.0038283258421808225;entryY=0.4950980579151827;" edge="1" parent="1" source="6" target="7">
          <mxGeometry relative="1" as="geometry">
            <Array as="points" />
          </mxGeometry>
        </mxCell>
        <mxCell id="14" value="" style="curved=1;startArrow=none;endArrow=block;exitX=0.9977742382603833;exitY=0.4950980579151827;entryX=-0.0019008330185047901;entryY=0.4950980579151827;" edge="1" parent="1" source="7" target="8">
          <mxGeometry relative="1" as="geometry">
            <Array as="points" />
          </mxGeometry>
        </mxCell>
      </root>
    </mxGraphModel>
  </diagram>
</mxfile>
